<?xml version="1.0" encoding="UTF-8" standalone="no"?>
<!-- Created with Inkscape (http://www.inkscape.org/) -->

<svg
   width="300"
   height="450"
   viewBox="0 0 79.374998 119.0625"
   version="1.1"
   id="svg5"
   inkscape:version="1.1.2 (b8e25be833, 2022-02-05)"
   sodipodi:docname="BLC-Cat-COLOR.svg"
   xmlns:inkscape="http://www.inkscape.org/namespaces/inkscape"
   xmlns:sodipodi="http://sodipodi.sourceforge.net/DTD/sodipodi-0.dtd"
   xmlns="http://www.w3.org/2000/svg"
   xmlns:svg="http://www.w3.org/2000/svg">
  <sodipodi:namedview
     id="namedview7"
     pagecolor="#505050"
     bordercolor="#ffffff"
     borderopacity="1"
     inkscape:pageshadow="0"
     inkscape:pageopacity="0"
     inkscape:pagecheckerboard="1"
     inkscape:document-units="mm"
     showgrid="false"
     units="px"
     inkscape:zoom="0.4005097"
     inkscape:cx="-364.53549"
     inkscape:cy="396.99413"
     inkscape:window-width="1366"
     inkscape:window-height="705"
     inkscape:window-x="-1374"
     inkscape:window-y="-2"
     inkscape:window-maximized="1"
     inkscape:current-layer="layer1"
     inkscape:snap-global="false" />
  <defs
     id="defs2">
    <rect
       x="-45.903446"
       y="339.86206"
       width="8.8275862"
       height="51.200001"
       id="rect1794" />
  </defs>
  <g
     inkscape:groupmode="layer"
     id="layer5"
     inkscape:label="color - 1 body" />
  <g
     inkscape:groupmode="layer"
     id="layer8"
     inkscape:label="color - 4 talisman" />
  <g
     inkscape:groupmode="layer"
     id="layer6"
     inkscape:label="color - 2 ears nose neck"
     style="display:inline" />
  <g
     inkscape:groupmode="layer"
     id="layer7"
     inkscape:label="color - 3 shades accent" />
  <g
     inkscape:groupmode="layer"
     id="layer3"
     inkscape:label="bnb"
     style="display:inline">
    <g
       aria-label="B N B"
       transform="scale(1.2651886,0.79039599)"
       id="text8944"
       style="font-size:15.2204px;line-height:1.25;font-family:'Arial Rounded MT Bold';-inkscape-font-specification:'Arial Rounded MT Bold, Normal';display:inline;stroke:#000000;stroke-width:0.380509" />
  </g>
  <g
     inkscape:groupmode="layer"
     id="layer4"
     inkscape:label="BNB CASE"
     style="display:inline" />
  <g
     inkscape:groupmode="layer"
     id="layer2"
     inkscape:label="shades"
     style="display:inline" />
  <g
     inkscape:label="full cat"
     inkscape:groupmode="layer"
     id="layer1"
     style="display:inline">
    <text
       xml:space="preserve"
       transform="scale(0.26458333)"
       id="text1792"
       style="font-style:normal;font-weight:normal;font-size:40px;line-height:1.25;font-family:sans-serif;white-space:pre;shape-inside:url(#rect1794);fill:#000000;fill-opacity:1;stroke:none"><tspan
         x="-45.904297"
         y="427.09268"
         id="tspan5138">B</tspan></text>
    <g
       id="g5098"
       transform="translate(-1.9366265,10.957279)">
      <path
         style="fill:#ffffff;stroke:none;stroke-width:0.264583px;stroke-linecap:butt;stroke-linejoin:miter;stroke-opacity:1"
         d="m 18.82757,3.5508139 c 0,0 -5.615239,4.2940079 -6.193279,8.5880151 -0.578041,4.294007 -0.660617,9.744093 0.82577,9.991824 1.486386,0.247731 3.303084,-1.568964 5.697818,-3.137928 2.394735,-1.568965 9.083479,-5.119778 11.313059,-5.697817 2.22958,-0.57804 0.247729,-5.2849322 -0.908349,-5.8629722 C 28.406511,6.8538965 25.929198,2.9727744 22.873848,3.2205057 19.818495,3.4682366 18.82757,3.5508139 18.82757,3.5508139 Z"
         id="path1510" />
      <path
         style="fill:#ffffff;stroke:none;stroke-width:0.264583px;stroke-linecap:butt;stroke-linejoin:miter;stroke-opacity:1"
         d="m 57.473638,3.5508139 c 0,0 -6.523588,0.4128852 -8.505439,2.394735 -1.981848,1.9818499 -5.945547,6.8538971 -4.789469,6.9364741 1.156079,0.08258 9.331209,3.550813 8.588015,3.055351 -0.743193,-0.495462 7.184205,4.211429 8.17513,5.780394 0.990926,1.568964 2.972774,0.08258 3.303083,-1.238656 C 64.575266,19.157879 66.391961,12.138829 63.997226,8.8357458 61.602492,5.5326634 57.473638,3.5508139 57.473638,3.5508139 Z"
         id="path1611" />
      <path
         style="fill:#ffffff;stroke:none;stroke-width:0.264583px;stroke-linecap:butt;stroke-linejoin:miter;stroke-opacity:1"
         d="m 20.645202,20.655464 14.130575,0.05839 1.751725,3.912184 4.788045,-0.233564 1.634942,-3.67862 8.992182,-0.233564 5.7223,-0.05839 -0.05839,-1.576552 -11.386206,-5.430344 -5.021609,-0.175172 -8.875403,0.291954 -7.765975,2.277241 -5.605518,3.094712 -0.350346,1.810115 z"
         id="path1646" />
      <path
         style="fill:#ffffff;stroke:none;stroke-width:0.264583px;stroke-linecap:butt;stroke-linejoin:miter;stroke-opacity:1"
         d="m 17.754068,23.947348 h -1.899272 l -2.642465,4.624316 -1.073502,6.688743 3.963699,9.083477 0.82577,1.568963 -7.3493597,11.395636 -0.578038,8.588015 -0.330308,8.422862 2.2295797,8.340283 h 3.137929 l 12.882023,-0.165153 1.899271,-9.909249 -1.156078,-5.367509 2.312157,-4.624316 4.376586,-2.22958 0.330309,-6.523588 4.624313,-12.964602 -4.376584,-1.65154 -1.40381,-4.128854 4.046278,-0.412885 0.990923,-10.900173 -2.477312,1.238656 -3.303083,6.275858 -10.156978,3.137927 -4.541739,-2.394733 z"
         id="path1681" />
      <rect
         style="fill:#ffffff;stroke:none;stroke-width:2.64583;stroke-linecap:round;stroke-linejoin:round;paint-order:markers stroke fill"
         id="rect1969"
         width="17.506346"
         height="12.551713"
         x="56.647861"
         y="26.920122"
         ry="0.94963717" />
      <rect
         style="fill:#ffffff;stroke:none;stroke-width:2.64583;stroke-linecap:round;stroke-linejoin:round;paint-order:markers stroke fill"
         id="rect1971"
         width="9.7440939"
         height="26.589815"
         x="60.281254"
         y="40.297611"
         ry="0.94963717" />
      <rect
         style="fill:#ffffff;stroke:none;stroke-width:2.64583;stroke-linecap:round;stroke-linejoin:round;paint-order:markers stroke fill"
         id="rect1973"
         width="15.937374"
         height="10.322133"
         x="13.542639"
         y="82.824791"
         ry="0.94963717" />
      <rect
         style="fill:#ffffff;stroke:none;stroke-width:2.64583;stroke-linecap:round;stroke-linejoin:round;paint-order:markers stroke fill"
         id="rect1975"
         width="16.845722"
         height="10.404711"
         x="47.564388"
         y="82.577057"
         ry="0.94963717" />
      <path
         style="fill:#ffffff;stroke:none;stroke-width:0.264583px;stroke-linecap:butt;stroke-linejoin:miter;stroke-opacity:1"
         d="m 37.987271,23.983739 -1.109427,10.451954 c 0,0 5.839082,0.525518 6.131036,0.525518 0.291955,0 -0.642299,4.028964 -0.642299,4.028964 l -2.685976,2.919542 -2.919542,3.7954 -2.569195,8.057933 7.474022,0.525516 1.051036,5.255172 3.561839,2.802761 3.153103,3.853791 0.408737,12.495633 0.642297,3.094712 14.072184,1.693333 1.401379,-0.934251 2.277242,-5.839082 -1.284597,-8.408276 -2.452415,-1.576551 -4.729654,-2.569194 -0.934255,-5.955864 0.233564,-12.32046 0.467127,-6.131033 -6.422988,-4.204139 -6.189427,-1.576552 -5.021609,-4.496091 -0.992642,-3.970576 -0.05839,-1.226206 z"
         id="path2010" />
      <path
         id="rect3012"
         style="fill:#1a1a1a;stroke-width:2.65156;stroke-linecap:round;stroke-linejoin:round;paint-order:markers stroke fill"
         d="m 29.903404,62.672653 16.250602,-0.660617 c 0.527945,-0.02146 2.641646,4.145307 2.615524,4.670763 l -1.290171,25.953139 c -0.02612,0.525456 -0.755683,0.949638 -1.284064,0.949638 H 30.275001 c -0.528381,0 -0.925886,-0.424278 -0.953756,-0.949638 L 28.412897,75.513389 c -0.02787,-0.525361 0.962562,-12.819274 1.490507,-12.840736 z"
         sodipodi:nodetypes="sssssssss" />
      <ellipse
         style="display:inline;fill:#ff7d2a;fill-opacity:1;stroke:none;stroke-width:4.03125;stroke-linecap:round;stroke-linejoin:round;paint-order:markers stroke fill"
         id="path2225"
         cx="21.345896"
         cy="12.831097"
         rx="4.5544829"
         ry="5.5471263" />
      <ellipse
         style="display:inline;fill:#ff7d2a;fill-opacity:1;stroke:none;stroke-width:4.03125;stroke-linecap:round;stroke-linejoin:round;paint-order:markers stroke fill"
         id="ellipse2415"
         cx="55.741756"
         cy="12.831097"
         rx="4.5544829"
         ry="5.5471263" />
      <ellipse
         style="display:inline;fill:#fff000;fill-opacity:1;stroke:none;stroke-width:2.64583;stroke-linecap:round;stroke-linejoin:round;paint-order:markers stroke fill"
         id="path2493"
         cx="38.439625"
         cy="37.200966"
         rx="4.1701417"
         ry="2.2295809" />
      <circle
         style="display:inline;fill:#ff0000;fill-opacity:1;stroke:none;stroke-width:2.64583;stroke-linecap:round;stroke-linejoin:round;paint-order:markers stroke fill"
         id="path2830"
         cx="38.279224"
         cy="57.383282"
         r="5.0216093" />
      <rect
         style="fill:#00aeef;fill-opacity:1;stroke:none;stroke-width:2.64583;stroke-linecap:round;stroke-linejoin:round;paint-order:markers stroke fill"
         id="rect2598"
         width="11.478212"
         height="9.083477"
         x="18.82757"
         y="21.470037"
         ry="0.94963717" />
      <rect
         style="fill:#00aeef;fill-opacity:1;stroke:none;stroke-width:2.64583;stroke-linecap:round;stroke-linejoin:round;paint-order:markers stroke fill"
         id="rect2600"
         width="11.891097"
         height="8.4228611"
         x="42.609768"
         y="21.71777"
         ry="0.94963717" />
      <path
         d="m 38.725756,71.516472 h -2.932494 q -0.634937,0 -0.909857,-0.224461 -0.268375,-0.229683 -0.268375,-0.725589 v -5.7525 q 0,-0.506346 0.27492,-0.725588 0.28147,-0.224463 0.903312,-0.224463 h 3.109228 q 0.687303,0 1.191326,0.06785 0.504021,0.06786 0.903311,0.261003 0.340378,0.161821 0.602209,0.412384 0.261829,0.245343 0.39929,0.548106 0.137459,0.297543 0.137459,0.631626 0,1.148413 -1.440062,1.680859 1.891719,0.480245 1.891719,1.86878 0,0.642066 -0.412382,1.158851 -0.41238,0.511566 -1.112776,0.756909 -0.438564,0.146161 -1.008043,0.208802 -0.569479,0.05742 -1.328785,0.05742 z M 38.58175,68.118216 H 36.559119 V 70.3524 h 2.088088 q 1.970268,0 1.970268,-1.132751 0,-0.579427 -0.510568,-0.84043 -0.510568,-0.261003 -1.525157,-0.261003 z m -2.022631,-3.090272 v 1.978401 h 1.780438 q 0.726576,0 1.119322,-0.109627 0.39929,-0.109627 0.608754,-0.417604 0.163643,-0.219242 0.163643,-0.490686 0,-0.579425 -0.517114,-0.767348 -0.517113,-0.193142 -1.577523,-0.193142 z"
         id="path1937"
         style="font-size:15.2204px;line-height:1.25;font-family:'Arial Rounded MT Bold';-inkscape-font-specification:'Arial Rounded MT Bold, Normal';display:inline;fill:#00aeef;fill-opacity:1;stroke:none;stroke-width:0.299285" />
      <path
         d="m 37.161324,73.986075 3.737617,4.160835 v -4.199362 q 0,-0.40934 0.235647,-0.611603 0.242192,-0.207083 0.648028,-0.207083 0.418928,0 0.661121,0.207083 0.242191,0.202263 0.242191,0.611603 v 5.552601 q 0,0.929447 -1.047318,0.929447 -0.26183,0 -0.471294,-0.05779 -0.209462,-0.0529 -0.392743,-0.173371 -0.183282,-0.120397 -0.340379,-0.279312 -0.157098,-0.163736 -0.314196,-0.33229 L 36.47402,75.474152 v 4.136754 q 0,0.40453 -0.25528,0.611609 -0.255288,0.207079 -0.654575,0.207079 -0.412383,0 -0.661121,-0.207079 -0.248736,-0.211896 -0.248736,-0.611609 v -5.446651 q 0,-0.346733 0.104728,-0.54418 0.124363,-0.216713 0.412383,-0.351555 0.288014,-0.139656 0.621842,-0.139656 0.261832,0 0.445116,0.0626 0.189821,0.0626 0.327285,0.168556 0.144004,0.105949 0.288011,0.274497 0.150553,0.168555 0.30765,0.351559 z"
         id="path1939"
         style="font-size:15.2204px;line-height:1.25;font-family:'Arial Rounded MT Bold';-inkscape-font-specification:'Arial Rounded MT Bold, Normal';display:inline;fill:#fff000;fill-opacity:1;stroke:none;stroke-width:0.287462" />
      <path
         d="m 38.725178,90.785811 h -2.918849 q -0.631985,0 -0.905624,-0.230094 -0.267128,-0.235448 -0.267128,-0.743782 v -5.89673 q 0,-0.519047 0.273637,-0.743788 0.280163,-0.230094 0.899115,-0.230094 h 3.094761 q 0.684106,0 1.185784,0.06954 0.501676,0.06954 0.899109,0.26754 0.338794,0.165881 0.599407,0.422728 0.260611,0.251493 0.397432,0.561847 0.136821,0.305001 0.136821,0.647468 0,1.177202 -1.433364,1.722996 1.88292,0.492287 1.88292,1.915643 0,0.658161 -0.410465,1.187909 -0.410461,0.524394 -1.107598,0.775881 -0.436524,0.149827 -1.003354,0.21404 -0.56683,0.05883 -1.322604,0.05883 z m -0.143336,-3.483474 h -2.013228 v 2.290212 h 2.07838 q 1.961102,0 1.961102,-1.161155 0,-0.593962 -0.508193,-0.861509 -0.508192,-0.267548 -1.518061,-0.267548 z m -2.013228,-3.167751 v 2.02801 h 1.772162 q 0.723196,0 1.114114,-0.112372 0.397433,-0.112371 0.605921,-0.428074 0.162883,-0.224739 0.162883,-0.502987 0,-0.593953 -0.514708,-0.786588 -0.514707,-0.197986 -1.570184,-0.197986 z"
         id="path1941"
         style="font-size:15.2204px;line-height:1.25;font-family:'Arial Rounded MT Bold';-inkscape-font-specification:'Arial Rounded MT Bold, Normal';display:inline;fill:#ed008c;fill-opacity:1;stroke:none;stroke-width:0.302308" />
      <path
         id="rect7862"
         style="display:inline;fill:none;stroke:#000000;stroke-width:2.35459;stroke-linecap:round;stroke-linejoin:round;paint-order:markers stroke fill"
         d="m 34.173472,60.835916 h 8.347874 c 3.592762,0 6.485131,2.892367 6.485131,6.48513 V 82.08821 l -2.03246,2.330109 c -1.343971,1.54079 -0.373683,7.569526 -0.373683,7.569526 2.496063,2.066452 -2.530804,1.435851 -4.078988,1.435851 h -8.347874 c -1.445855,0 -6.843206,0.507144 -3.854413,-1.262439 0,0 0.643743,-6.133653 -0.679554,-7.824236 l -1.951163,-2.492708 v -6.51613 l 1.610461,-3.91112 -1.610461,-4.096017 c -1.314631,-3.343605 2.892367,-6.48513 6.48513,-6.48513 z"
         sodipodi:nodetypes="ssscscsscscccss" />
      <path
         style="display:inline;fill:#000000;stroke-width:0.091883"
         d="m 21.926228,37.047003 c -2.189776,-0.45588 -3.873008,-1.732555 -4.833921,-3.666361 -0.599844,-1.207165 -0.624773,-1.411647 -0.624773,-5.122896 0,-3.327589 0,-3.327589 -0.56379,-3.378011 -0.730115,-0.0653 -1.009059,-0.298005 -1.009059,-0.841801 0,-0.580233 0.263711,-0.775631 1.046812,-0.775631 0.506455,0 0.618549,-0.0266 0.618549,-0.146637 0,-0.08065 0.124402,-0.40371 0.27643,-0.717892 0.512915,-1.059955 1.863132,-2.087003 3.421995,-2.602938 1.417147,-0.469044 0.893797,-0.456108 18.413928,-0.45496 15.563625,6.96e-4 16.369002,0.0091 17.164528,0.17099 2.388418,0.486189 4.162798,1.731301 4.695907,3.29519 0.139984,0.410621 0.139984,0.410621 0.727298,0.438363 0.748542,0.03537 1.004951,0.237822 1.004951,0.793515 0,0.527513 -0.277301,0.76995 -0.960175,0.839461 -0.520147,0.05298 2.119761,0.501661 -0.213393,2.533017 -0.383443,0.333844 -3.712246,2.322013 -3.820849,2.840796 -0.531523,2.537944 1.008639,5.985335 -1.574529,6.697044 -0.913533,0.251696 -2.372845,0.334768 -3.301882,0.187956 -1.99475,-0.315214 -5.650396,-1.848813 -7.823852,-3.282215 -2.134193,-1.40751 -3.477602,-2.97887 -4.101394,-4.797309 -0.219067,-0.638612 -0.257437,-0.924204 -0.30648,-2.281251 -0.05607,-1.551247 -0.05607,-1.551247 -0.518663,-1.779377 -0.647139,-0.319126 -1.586276,-0.317602 -2.158777,0.0035 -0.400481,0.224622 -0.400481,0.224622 -0.43069,1.593371 -0.03571,1.617765 -0.186005,2.347845 -0.698658,3.393614 -1.271619,2.593999 -4.683573,4.965709 -9.525935,6.621651 -1.847483,0.631784 -3.33655,0.765035 -4.903578,0.438801 z m 4.926704,-10.576417 c 2.793358,-2.746111 2.937521,-2.904332 2.937521,-3.223939 0,-0.254404 -0.05929,-0.382064 -0.24378,-0.525216 -0.514191,-0.398912 -0.504535,-0.406082 -3.709873,2.755258 -2.617363,2.581428 -2.985373,2.97878 -2.985373,3.223465 0,0.419859 0.479847,0.804521 0.878947,0.704595 0.10176,-0.02548 1.506923,-1.34586 3.122558,-2.934163 z m 23.685199,0 c 2.793355,-2.746111 2.937516,-2.904332 2.937516,-3.223939 0,-0.254404 -0.05925,-0.382064 -0.243775,-0.525216 -0.514189,-0.398912 -0.504533,-0.406082 -3.709876,2.755258 -2.617364,2.581428 -2.985367,2.97878 -2.985367,3.223465 0,0.419859 0.479846,0.804521 0.878943,0.704595 0.101773,-0.02548 1.506924,-1.34586 3.122559,-2.934163 z m -28.096782,-1.02931 c 0.930707,-0.909446 1.741834,-1.771762 1.802518,-1.916249 0.204412,-0.486719 -0.186695,-0.992721 -0.767304,-0.992721 -0.134895,0 -0.773222,0.566491 -1.984827,1.761473 -1.58504,1.563276 -1.785999,1.794756 -1.785999,2.057269 0,0.393705 0.352436,0.743761 0.748815,0.743761 0.258058,0 0.504644,-0.205227 1.986797,-1.653533 z m 23.685203,0 c 0.9307,-0.909446 1.741831,-1.771762 1.802515,-1.916249 0.20441,-0.486719 -0.186695,-0.992721 -0.767302,-0.992721 -0.134894,0 -0.773223,0.566491 -1.984833,1.761473 -1.585044,1.563276 -1.785996,1.794756 -1.785996,2.057269 0,0.393705 0.352437,0.743761 0.748815,0.743761 0.258058,0 0.504646,-0.205227 1.986801,-1.653533 z m -8.841956,-2.14674 c 0.590764,-0.209445 1.940229,-0.207072 2.573433,0.0042 0.270447,0.09039 0.504179,0.149883 0.5194,0.132221 0.01521,-0.01768 0.138912,-0.365142 0.274866,-0.772185 0.135954,-0.407043 0.370603,-0.932014 0.521451,-1.166606 0.150846,-0.234597 0.274263,-0.445637 0.274263,-0.468994 0,-0.02333 -1.284714,-0.04246 -2.854921,-0.04246 -2.854922,0 -2.854922,0 -2.413436,0.868191 0.24282,0.477508 0.469523,1.031852 0.503789,1.231878 0.03427,0.200027 0.08986,0.36308 0.123561,0.36235 0.03372,-6.89e-4 0.24861,-0.06773 0.477599,-0.148936 z"
         id="path1144"
         sodipodi:nodetypes="csssssscsccssscscsssssscsssccsscsssssssssssssssssssssssssccsssssssccc" />
      <path
         id="path13760"
         style="fill:#000000;stroke-width:0.183584"
         d="m 12.789509,95.056088 c -1.109332,-0.562597 -2.066542,-1.67832 -2.366505,-2.7584 -0.205814,-0.741061 -0.225207,-5.294779 -0.02636,-6.191332 0.09767,-0.440409 0.0055,-0.716274 -0.4591267,-1.376886 -2.660816,-3.78161 -3.531709,-9.193996 -2.185957,-13.585233 0.263021,-0.858258 0.480901,-1.643079 0.484169,-1.744049 0.0035,-0.100972 -0.219725,-0.80318 -0.49555,-1.560468 -1.24614,-3.421343 -0.555075,-8.845262 1.736599,-13.629883 1.2663107,-2.643851 2.6944597,-4.742969 5.3578057,-7.875035 0.568121,-0.668105 0.568121,-0.668105 -0.366997,-1.828575 C 9.9694473,38.924087 9.0188013,31.778114 11.924201,25.387625 12.486792,24.150212 12.486792,24.150212 11.798184,22.64379 9.8603863,18.404566 9.6627823,13.767986 11.257902,9.9664348 c 1.185977,-2.8264741 4.333722,-6.5767139 6.505191,-7.75032 0.858362,-0.4639157 1.245204,-0.5521465 2.656894,-0.6059972 1.528446,-0.058287 1.805296,-0.00985 3.694474,0.6467274 2.886222,1.0030744 4.641867,2.0464836 6.405269,3.806762 1.471647,1.4690438 2.399035,2.9093628 2.843696,4.416535 0.219752,0.74484 0.219752,0.74484 1.532282,0.579112 0.721895,-0.09116 2.931608,-0.124652 4.910481,-0.07446 3.597946,0.09129 3.597946,0.09129 3.901962,-0.873156 0.877977,-2.7852654 3.499381,-5.3766878 7.165011,-7.0830669 2.384526,-1.1100193 3.970674,-1.5086711 5.699688,-1.4325194 1.933106,0.085132 2.874996,0.5484835 4.743229,2.333381 1.871226,1.7877632 2.939065,3.2187487 3.921506,5.2550941 1.174929,2.4353592 1.4385,3.6117942 1.439534,6.4254462 0.0013,2.769791 -0.386425,4.526713 -1.542531,6.994675 -0.618585,1.320523 -0.670299,1.536501 -0.461509,1.927638 0.228233,0.427564 0.315027,0.443176 2.958481,0.532282 2.586829,0.08719 2.785229,0.121105 3.957659,0.676503 1.71454,0.812213 2.93647,2.011353 3.77281,3.70246 0.684,1.383061 0.684,1.383061 0.74649,4.310901 0.0416,1.946879 -0.0135,3.199189 -0.16426,3.737723 -0.26319,0.939995 -1.55172,2.468227 -2.36522,2.805187 -0.54895,0.227378 -0.54895,0.227378 -0.60145,11.544169 -0.0525,11.31679 -0.0525,11.31679 -0.64154,12.560365 -0.66354,1.400801 -2.13273,2.996318 -3.314046,3.598984 -0.75449,0.384906 -0.75449,0.384906 -0.303251,1.495405 0.813299,2.001563 1.059217,3.400389 1.064257,6.05398 0.003,2.00474 -0.0745,2.77426 -0.410109,4.026584 -0.475229,1.77365 -1.346116,3.730527 -2.252265,5.060834 -0.499726,0.733642 -0.601543,1.028497 -0.50715,1.468678 0.195572,0.912059 0.173237,5.45802 -0.03039,6.191331 -0.299962,1.08008 -1.257173,2.195803 -2.366505,2.7584 -0.995477,0.50486 -0.995477,0.50486 -25.713519,0.50486 -24.718039,0 -24.718039,0 -25.713516,-0.50486 z m 3.6834,-3.72965 c 0,-1.151131 0.230364,-1.601766 0.978645,-1.914413 1.338786,-0.559384 2.325874,0.229752 2.325874,1.859446 0,0.984957 0,0.984957 1.468676,0.984957 1.46867,0 1.46867,0 1.46867,-0.814176 0,-1.18835 0.269746,-1.734031 1.010097,-2.043368 1.333221,-0.55706 2.29442,0.227426 2.29442,1.872587 0,0.984957 0,0.984957 1.043784,0.984957 0.818999,0 1.135275,-0.08596 1.468669,-0.399171 0.402558,-0.378182 0.4249,-0.526698 0.4249,-2.824594 0,-2.29569 -0.02734,-2.478093 -0.511604,-3.410199 -0.570945,-1.099016 -1.762909,-2.034882 -3.024344,-2.374548 -0.470924,-0.126806 -2.182312,-0.177997 -4.618491,-0.138149 -4.303657,0.0704 -4.678834,0.163211 -5.925268,1.46593 -1.077949,1.126623 -1.332819,1.988469 -1.337342,4.522244 -0.0041,2.154435 0.01652,2.277782 0.446585,2.707872 0.370084,0.370086 0.632551,0.450615 1.468675,0.450615 1.018054,0 1.018054,0 1.018054,-0.92999 z m 28.307928,-1.869396 c -0.07758,-3.889151 0.301762,-5.166737 2.115898,-7.126225 0.988185,-1.067353 0.988185,-1.067353 0.932745,-8.559459 -0.06099,-8.238305 -0.04448,-8.111919 -1.233847,-9.466517 -0.319987,-0.364438 -0.970565,-0.854111 -1.445745,-1.088157 -0.831517,-0.409559 -1.058728,-0.427738 -6.051327,-0.484211 -5.866339,-0.06632 -6.794546,0.0442 -7.988641,0.951751 -0.857398,0.651639 -1.775156,2.143109 -1.781824,2.895693 -0.0021,0.266332 0.241846,1.010207 0.542663,1.653048 1.247598,2.666048 1.208818,5.390253 -0.104518,7.341843 -0.626022,0.930269 -0.626022,0.930269 -0.626022,3.354191 0,2.423932 0,2.423932 0.66007,3.056595 0.987233,0.946239 1.657143,1.998744 2.089989,3.283639 0.342385,1.016347 0.381624,1.495147 0.33356,4.069785 -0.05447,2.917917 -0.05447,2.917917 6.279178,2.917937 6.333655,2.1e-5 6.333655,2.1e-5 6.277813,-2.799913 z m 6.205917,1.83052 c 0,-1.582394 0.869796,-2.378192 2.140854,-1.958703 0.764338,0.252253 1.163662,0.970269 1.163662,2.092326 0,0.835243 0,0.835243 1.468676,0.835243 1.468677,0 1.468677,0 1.468677,-0.984957 0,-1.629694 0.987089,-2.41883 2.325874,-1.859446 0.748284,0.312647 0.978646,0.763282 0.978646,1.914413 0,0.92999 0,0.92999 1.018056,0.92999 0.836123,0 1.09859,-0.08053 1.468676,-0.450615 0.43009,-0.43009 0.450435,-0.553437 0.446584,-2.707872 -0.0041,-2.533775 -0.259393,-3.395621 -1.337343,-4.522244 -1.246433,-1.302719 -1.62161,-1.395537 -5.925272,-1.46593 -2.436175,-0.03982 -4.147566,0.0113 -4.618497,0.138149 -1.261427,0.339666 -2.453391,1.275532 -3.024334,2.374548 -0.483429,0.930545 -0.511607,1.116929 -0.511607,3.384478 0,2.211156 0.03136,2.433075 0.399173,2.824586 0.328655,0.349838 0.588103,0.4249 1.468669,0.4249 1.069506,0 1.069506,0 1.069506,-0.968866 z M 14.722019,80.611067 c 1.537425,-0.725585 2.800809,-0.868424 7.120924,-0.805102 3.993154,0.0585 3.993154,0.0585 3.992704,-0.767605 -3.68e-4,-0.826126 -3.68e-4,-0.826126 -2.340889,-0.844819 -2.585545,-0.02067 -4.06046,-0.328253 -6.556613,-1.3674 -1.561904,-0.650225 -3.744252,-2.015239 -5.176418,-3.237747 -0.603112,-0.514818 -0.993471,-0.734925 -1.073571,-0.605319 -0.06924,0.112004 -0.167284,1.003942 -0.217907,1.982065 -0.114053,2.20356 0.225748,3.941816 1.159512,5.931638 0.671596,1.431152 0.671596,1.431152 1.419545,0.790941 0.411369,-0.352122 1.164092,-0.836611 1.672713,-1.076652 z M 66.307003,78.08228 c 0.535086,-2.662167 0.227276,-5.339753 -0.892569,-7.764176 -0.593578,-1.285088 -0.593578,-1.285088 -1.745396,-1.50167 -3.023572,-0.568543 -5.400219,-2.750323 -6.155495,-5.65079 -0.230756,-0.886179 -0.28492,-2.293749 -0.28492,-7.404423 0,-6.310237 0,-6.310237 -0.963823,-5.731749 -3.202054,1.921885 -7.333454,3.534053 -10.622915,4.145318 -1.764983,0.327974 -1.764983,0.327974 -1.29528,1.351234 0.385711,0.840266 0.468198,1.291499 0.461259,2.523173 -0.0085,1.499915 -0.0085,1.499915 1.028893,1.878145 2.750531,1.002894 4.601623,3.18495 5.148594,6.069127 0.102259,0.539199 0.184906,3.858414 0.184797,7.421734 -1.81e-4,6.446289 -1.81e-4,6.446289 4.075744,6.39017 4.844901,-0.06668 6.108285,0.132125 7.797679,1.227185 0.5882,0.381277 1.19179,0.842175 1.341297,1.024222 0.25122,0.30589 0.323631,0.221274 0.954774,-1.115735 0.375616,-0.795694 0.81093,-2.083494 0.967361,-2.861765 z m -40.47504,-3.495835 c 1.228994,-0.627987 1.567108,-1.212101 1.549455,-2.67676 -0.02769,-2.29637 -1.046621,-3.66919 -4.330571,-5.834526 -3.20921,-2.116049 -4.925678,-3.862181 -4.925678,-5.010813 0,-1.089828 0.931724,-1.84407 1.95939,-1.586148 0.25532,0.06412 0.972218,0.617586 1.593114,1.23001 0.620888,0.612422 1.963421,1.676349 2.98339,2.364278 1.854499,1.250783 1.854499,1.250783 2.137422,0.668307 0.842965,-1.735508 2.691419,-3.297987 4.621265,-3.906318 0.968395,-0.305257 0.968395,-0.305257 0.82084,-1.095115 -0.183056,-0.979816 0.06237,-2.56935 0.541836,-3.509158 0.362452,-0.710465 0.362452,-0.710465 -1.370017,-1.029149 -0.952853,-0.175278 -2.535461,-0.571243 -3.516894,-0.879936 -2.372856,-0.746338 -6.552131,-2.827952 -8.479721,-4.223585 -1.554938,-1.125819 -1.554938,-1.125819 -2.478392,-0.07342 -4.08532,4.655758 -6.522773,10.247944 -6.522773,14.965048 0,3.815448 2.887541,7.465016 7.645712,9.663427 2.943564,1.360011 6.177189,1.748567 7.771622,0.933856 z m 41.126626,-9.331756 c 1.109423,-0.502197 1.794681,-1.176722 2.316228,-2.279953 0.433942,-0.917925 0.433942,-0.917925 0.435742,-11.519913 0.002,-10.601995 0.002,-10.601995 -4.58781,-10.601995 -4.589606,0 -4.589606,0 -4.588586,10.418407 6.95e-4,6.610629 0.07044,10.668334 0.190938,11.102213 0.703083,2.531589 3.821589,3.973019 6.233488,2.881241 z M 41.360418,58.889983 c 0.06085,-0.277669 0.13871,-0.598407 0.173035,-0.712755 0.105319,-0.350768 -0.283748,-1.605187 -0.628541,-2.02659 -1.247994,-1.525288 -3.555779,-1.525288 -4.803771,0 -0.344795,0.421403 -0.733858,1.675822 -0.628543,2.02659 0.03435,0.114355 0.112188,0.435086 0.173036,0.712755 0.110625,0.504862 0.110625,0.504862 2.857392,0.504862 2.74677,0 2.74677,0 2.857392,-0.504862 z m 1.824003,-7.591854 c 4.37147,-0.646833 9.033028,-2.510074 12.621424,-5.044827 1.422778,-1.005018 1.422778,-1.005018 1.422778,-3.37396 0,-2.249063 -0.01963,-2.375158 -0.387467,-2.491915 -0.682849,-0.216728 -1.860061,-1.434163 -2.301518,-2.380154 -0.387196,-0.829706 -0.428535,-1.176582 -0.430153,-3.609435 -0.0013,-2.129704 0.0708,-2.924774 0.346016,-3.809032 0.383615,-1.232555 1.195947,-2.606976 1.985352,-3.359117 0.858267,-0.81775 2.609109,-1.768895 3.656303,-1.986297 0.991535,-0.205841 0.991535,-0.205841 0.687657,-0.720255 -0.533579,-0.903277 -2.327048,-2.907976 -3.464398,-3.872416 -3.345352,-2.836778 -7.46576,-4.773763 -12.3733,-5.816637 -2.098439,-0.445924 -2.688798,-0.49235 -6.352298,-0.499518 -3.511483,-0.007 -4.312748,0.04747 -6.136474,0.415998 -10.036178,2.02822 -17.234412,8.077952 -18.683592,15.702573 -0.894359,4.705529 1.111756,10.273582 4.981339,13.825926 4.286291,3.934885 10.481548,6.630933 16.60447,7.225912 1.832503,0.178066 5.959995,0.06896 7.823861,-0.206846 z M 32.003607,46.740815 c -3.208188,-1.060117 -5.481883,-4.204094 -4.065024,-5.620953 0.329952,-0.329952 0.649538,-0.450615 1.19349,-0.450615 0.69031,0 0.803243,0.07774 1.596064,1.098661 0.911664,1.173958 2.26543,2.022267 3.22722,2.022267 0.76168,0 1.675644,-0.434281 2.130248,-1.01222 0.218899,-0.27828 0.396944,-0.556789 0.39566,-0.618897 -0.0013,-0.0621 -0.466775,-0.402078 -1.034423,-0.755477 -2.111553,-1.314583 -3.618796,-4.224502 -3.186138,-6.151245 0.205529,-0.915281 1.149513,-1.818807 2.234609,-2.138822 1.079553,-0.318386 6.935872,-0.318386 8.015424,0 1.099105,0.324144 2.029289,1.22253 2.239849,2.163275 0.448061,2.001805 -1.320899,5.201847 -3.486178,6.30649 -0.408074,0.208184 -0.741953,0.44831 -0.741953,0.533613 0,0.340055 0.830539,1.181466 1.401809,1.420155 0.885118,0.36983 1.526684,0.313099 2.619849,-0.231646 0.659564,-0.328675 1.180239,-0.773483 1.616949,-1.381361 0.736533,-1.025194 1.081376,-1.254793 1.884619,-1.254793 0.831627,0 1.472403,0.706622 1.472403,1.623719 0,0.95769 -1.238849,2.662328 -2.543101,3.499264 -2.676462,1.717475 -5.494859,1.68 -7.875306,-0.104728 -0.596651,-0.447334 -0.596651,-0.447334 -1.193303,0 -1.785979,1.339035 -3.89772,1.715857 -5.902767,1.053316 z m 7.827269,-8.185051 c 0.703776,-0.478223 1.751668,-2.027984 1.524713,-2.25494 -0.168928,-0.168928 -5.536199,-0.168928 -5.705127,0 -0.226955,0.226956 0.820937,1.776717 1.524714,2.25494 0.408567,0.277628 0.937123,0.461224 1.32785,0.461224 0.390727,0 0.919282,-0.183596 1.32785,-0.461224 z m -19.518607,3.530418 c -0.781891,-0.600316 -0.89268,-1.956267 -0.209976,-2.570071 0.615532,-0.553418 3.776262,-1.9678 4.397447,-1.9678 0.87589,0 1.519551,0.682787 1.519551,1.611911 0,0.912241 -0.347299,1.231321 -2.520612,2.315764 -1.722742,0.859611 -2.634212,1.034166 -3.18641,0.610196 z m 40.072062,-5.755695 c 0.09157,-1.438057 0.486828,-1.903111 1.617482,-1.903111 1.130661,0 1.52592,0.465054 1.617489,1.903111 0.07754,1.217824 0.07754,1.217824 1.524831,1.217824 1.447292,0 1.447292,0 1.447292,-0.929989 0,-1.503746 0.524386,-2.175195 1.706499,-2.185105 1.104069,-0.0092 1.598015,0.610564 1.598015,2.005248 0,1.109846 0,1.109846 0.8382,1.109846 0.8834,0 1.4925,-0.234781 1.86384,-0.718424 0.14777,-0.192478 0.225,-1.069754 0.22768,-2.586093 0.003,-2.02351 -0.0465,-2.403482 -0.42403,-3.214058 -0.46634,-1.001424 -1.48918,-2.010721 -2.44055,-2.408229 -0.904855,-0.378071 -8.759039,-0.359746 -9.674062,0.02255 -0.998276,0.417102 -1.966886,1.362925 -2.443146,2.38565 -0.377025,0.809619 -0.428294,1.196489 -0.429868,3.243638 -0.0021,2.324381 -0.0021,2.324381 0.563041,2.799664 0.436223,0.367059 0.765767,0.475282 1.447285,0.475282 0.882456,0 0.882456,0 0.960002,-1.217833 z M 19.57849,16.608197 c 2.953327,-2.08823 6.07354,-3.589498 9.11736,-4.386752 0.781365,-0.204655 1.457325,-0.408761 1.502113,-0.453557 0.18232,-0.182313 -0.87557,-2.0919732 -1.627148,-2.9372772 -2.207944,-2.4832835 -7.3865,-4.6023241 -9.09197,-3.7203909 -1.488508,0.7697362 -3.863305,3.4885989 -4.836884,5.5376641 -1.277928,2.689623 -1.450963,5.861377 -0.482894,8.851498 0.486538,1.5028 0.486538,1.5028 2.117293,-0.103297 0.896913,-0.883349 2.382874,-2.1379 3.30213,-2.787888 z m 43.482628,1.963491 c 0.198265,-0.728665 0.303946,-1.8059 0.299569,-3.053491 -0.0055,-1.615345 -0.08875,-2.165279 -0.512751,-3.394545 C 62.569642,11.31685 62.044729,10.167461 61.681464,9.5694618 60.93908,8.3473638 58.972617,6.1809249 57.889521,5.3919006 56.975163,4.7257997 55.942966,4.7050538 54.144838,5.3166446 c -3.232522,1.099452 -5.932853,3.1405152 -7.011995,5.3000644 -0.561563,1.123786 -0.561563,1.123786 0.957737,1.527668 4.611954,1.226012 8.950783,3.657949 12.380894,6.939555 1.805719,1.727549 1.805719,1.727549 2.044519,1.170578 0.13134,-0.306326 0.376649,-1.063599 0.545125,-1.682815 z" />
    </g>
  </g>
</svg>
